<svg width="690" height="332" viewBox="0 0 690 332" fill="none" xmlns="http://www.w3.org/2000/svg">
<path d="M342.278 0.0508716C441.585 -2.23938 529.694 73.0752 543.58 170.563C552.448 232.818 537.932 283.105 499.149 332C494.775 321.44 486.815 306.681 481.492 296.013C470.766 274.394 459.927 252.83 448.977 231.321C444.889 241.227 437.083 255.784 432.186 266.376C410.073 227.697 391.033 185.534 369.556 146.327C361.678 131.944 352.508 114.63 346.087 99.659L345.171 99.7909C341.713 102.922 328.787 129.568 325.674 135.616L280.901 221.884C273.948 235.336 264.601 255.534 256.769 267.785C252.509 256.599 245.16 242.532 239.771 231.505C224.288 263.986 205.796 299.149 189.607 331.53C159.92 296.585 144.513 255.368 142.289 209.651C139.725 156.464 158.667 104.475 194.862 65.3591C234.318 22.3918 284.704 2.36911 342.278 0.0508716Z" fill="currentColor"></path>
<path d="M210.321 1.84444C128.022 59.1592 80.3103 168.019 98.8014 265.6C88.7194 256.329 77.6179 247.853 67.7108 238.436C44.981 216.827 20.3812 194.902 0 171.126C10.7094 158.082 31.9854 137.659 44.2149 125.735C77.0509 93.72 114.049 62.3832 152.113 36.7304C166.583 26.9799 194.904 10.473 210.321 1.84444Z" fill="currentColor"></path>
<path d="M479.679 1.84444C561.978 59.1592 609.69 168.019 591.199 265.6C601.281 256.329 612.382 247.853 622.289 238.436C645.019 216.827 669.619 194.902 690 171.126C679.291 158.082 658.015 137.659 645.785 125.735C612.949 93.72 575.951 62.3832 537.887 36.7304C523.417 26.9799 495.096 10.473 479.679 1.84444Z" fill="currentColor"></path>
</svg>