<svg width="600" height="510" viewBox="0 0 600 510" fill="none" xmlns="http://www.w3.org/2000/svg">
<path d="M0 372.591H57.6803V391.944H21.1495V427.748H50.1819V447.102H21.1495V488.711H57.6803V508.065H0V372.591Z" fill="#1B2A41"></path>
<path d="M96.5635 438.78L73.2991 372.591H95.6021L109.83 416.33H110.214L124.827 372.591H144.823L121.558 438.78L145.976 508.065H123.673L108.292 460.842H107.907L92.1413 508.065H72.1455L96.5635 438.78Z" fill="#1B2A41"></path>
<path d="M163.713 372.591H194.86C205.371 372.591 213.254 375.43 218.509 381.107C223.765 386.784 226.392 395.105 226.392 406.072V419.426C226.392 430.393 223.765 438.715 218.509 444.392C213.254 450.069 205.371 452.908 194.86 452.908H184.862V508.065H163.713V372.591ZM194.86 433.554C198.321 433.554 200.885 432.587 202.551 430.651C204.346 428.716 205.243 425.426 205.243 420.781V404.718C205.243 400.073 204.346 396.783 202.551 394.847C200.885 392.912 198.321 391.944 194.86 391.944H184.862V433.554H194.86Z" fill="#1B2A41"></path>
<path d="M255.153 372.591H283.801L305.719 508.065H284.57L280.724 481.163V481.551H256.691L252.846 508.065H233.234L255.153 372.591ZM278.225 463.165L268.804 396.202H268.419L259.19 463.165H278.225Z" fill="#1B2A41"></path>
<path d="M323.671 372.591H350.204L370.776 453.682H371.161V372.591H390.003V508.065H368.277L342.897 409.169H342.513V508.065H323.671V372.591Z" fill="#1B2A41"></path>
<path d="M440.907 510C430.653 510 422.898 507.097 417.643 501.291C412.388 495.356 409.76 486.905 409.76 475.938V468.197H429.756V477.486C429.756 486.26 433.409 490.647 440.715 490.647C444.304 490.647 446.996 489.614 448.79 487.55C450.713 485.357 451.674 481.873 451.674 477.099C451.674 471.422 450.393 466.455 447.829 462.197C445.266 457.81 440.523 452.585 433.601 446.521C424.885 438.78 418.797 431.812 415.336 425.619C411.875 419.297 410.145 412.201 410.145 404.331C410.145 393.622 412.836 385.364 418.22 379.558C423.603 373.623 431.422 370.656 441.677 370.656C451.803 370.656 459.429 373.623 464.556 379.558C469.812 385.364 472.439 393.751 472.439 404.718V410.33H452.444V403.363C452.444 398.718 451.546 395.364 449.752 393.299C447.957 391.106 445.33 390.009 441.869 390.009C434.819 390.009 431.294 394.331 431.294 402.976C431.294 407.879 432.576 412.459 435.139 416.717C437.831 420.974 442.638 426.135 449.559 432.199C458.404 439.941 464.492 446.973 467.825 453.295C471.158 459.617 472.824 467.036 472.824 475.551C472.824 486.647 470.068 495.162 464.556 501.097C459.173 507.033 451.29 510 440.907 510Z" fill="#1B2A41"></path>
<path d="M492.641 372.591H513.79V508.065H492.641V372.591Z" fill="#1B2A41"></path>
<path d="M567.891 510C557.509 510 549.562 507.033 544.05 501.097C538.538 495.162 535.783 486.776 535.783 475.938V404.718C535.783 393.88 538.538 385.493 544.05 379.558C549.562 373.623 557.509 370.656 567.891 370.656C578.274 370.656 586.221 373.623 591.732 379.558C597.244 385.493 600 393.88 600 404.718V475.938C600 486.776 597.244 495.162 591.732 501.097C586.221 507.033 578.274 510 567.891 510ZM567.891 490.647C575.197 490.647 578.851 486.195 578.851 477.293V403.363C578.851 394.46 575.197 390.009 567.891 390.009C560.585 390.009 556.932 394.46 556.932 403.363V477.293C556.932 486.195 560.585 490.647 567.891 490.647Z" fill="#1B2A41"></path>
<path d="M297.633 0.0439839C383.987 -1.93618 460.604 63.1813 472.678 147.47C480.39 201.295 467.767 244.774 434.043 287.049C430.239 277.919 423.317 265.158 418.689 255.935C409.361 237.243 399.937 218.599 390.414 200.001C386.86 208.566 380.072 221.152 375.814 230.31C356.585 196.869 340.028 160.413 321.353 126.516C314.503 114.08 306.528 99.1095 300.946 86.1658L300.148 86.2798C297.142 88.9874 285.901 112.025 283.195 117.254L244.261 191.842C238.216 203.473 230.088 220.936 223.278 231.528C219.573 221.857 213.183 209.695 208.497 200.16C195.033 228.244 178.953 258.646 164.875 286.643C139.061 256.429 125.664 220.793 123.73 181.266C121.5 135.279 137.971 90.33 169.445 56.5099C203.755 19.3601 247.569 2.04834 297.633 0.0439839Z" fill="#1B2A41"></path>
<path d="M182.888 1.59472C111.323 51.1494 69.8351 145.27 85.9143 229.639C77.1473 221.624 67.4938 214.295 58.879 206.153C39.1139 187.47 17.7228 168.513 0 147.956C9.3125 136.678 27.8134 119.021 38.4478 108.711C67.0007 81.0309 99.1731 53.9369 132.272 31.7573C144.854 23.327 169.482 9.05499 182.888 1.59472Z" fill="#1B2A41"></path>
<path d="M417.112 1.59472C488.677 51.1494 530.165 145.27 514.086 229.639C522.853 221.624 532.506 214.295 541.121 206.153C560.886 187.47 582.277 168.513 600 147.956C590.687 136.678 572.187 119.021 561.552 108.711C532.999 81.0309 500.827 53.9369 467.728 31.7573C455.146 23.327 430.518 9.05499 417.112 1.59472Z" fill="#1B2A41"></path>
</svg>