<svg width="1080" height="1080" viewBox="0 0 1080 1080" fill="none" xmlns="http://www.w3.org/2000/svg">
<rect width="1080" height="1080" fill="white"/>
<path d="M240 657.591H297.68V676.944H261.149V712.748H290.182V732.102H261.149V773.711H297.68V793.065H240V657.591Z" fill="#141414"/>
<path d="M336.563 723.78L313.299 657.591H335.602L349.83 701.33H350.214L364.827 657.591H384.823L361.558 723.78L385.976 793.065H363.673L348.292 745.842H347.907L332.141 793.065H312.145L336.563 723.78Z" fill="#141414"/>
<path d="M403.713 657.591H434.86C445.371 657.591 453.254 660.43 458.509 666.107C463.765 671.784 466.392 680.105 466.392 691.072V704.426C466.392 715.393 463.765 723.715 458.509 729.392C453.254 735.069 445.371 737.908 434.86 737.908H424.862V793.065H403.713V657.591ZM434.86 718.554C438.321 718.554 440.885 717.587 442.551 715.651C444.346 713.716 445.243 710.426 445.243 705.781V689.718C445.243 685.073 444.346 681.783 442.551 679.847C440.885 677.912 438.321 676.944 434.86 676.944H424.862V718.554H434.86Z" fill="#141414"/>
<path d="M495.153 657.591H523.801L545.719 793.065H524.57L520.724 766.163V766.551H496.691L492.846 793.065H473.234L495.153 657.591ZM518.225 748.165L508.804 681.202H508.419L499.19 748.165H518.225Z" fill="#141414"/>
<path d="M563.671 657.591H590.204L610.776 738.682H611.161V657.591H630.003V793.065H608.277L582.897 694.169H582.513V793.065H563.671V657.591Z" fill="#141414"/>
<path d="M680.907 795C670.653 795 662.898 792.097 657.643 786.291C652.388 780.356 649.76 771.905 649.76 760.938V753.197H669.756V762.486C669.756 771.26 673.409 775.647 680.715 775.647C684.304 775.647 686.996 774.614 688.79 772.55C690.713 770.357 691.674 766.873 691.674 762.099C691.674 756.422 690.393 751.455 687.829 747.197C685.266 742.81 680.523 737.585 673.601 731.521C664.885 723.78 658.797 716.812 655.336 710.619C651.875 704.297 650.145 697.201 650.145 689.331C650.145 678.622 652.836 670.364 658.22 664.558C663.603 658.623 671.422 655.656 681.677 655.656C691.803 655.656 699.429 658.623 704.556 664.558C709.812 670.364 712.439 678.751 712.439 689.718V695.33H692.444V688.363C692.444 683.718 691.546 680.364 689.752 678.299C687.957 676.106 685.33 675.009 681.869 675.009C674.819 675.009 671.294 679.331 671.294 687.976C671.294 692.879 672.576 697.459 675.139 701.717C677.831 705.974 682.638 711.135 689.559 717.199C698.404 724.941 704.492 731.973 707.825 738.295C711.158 744.617 712.824 752.036 712.824 760.551C712.824 771.647 710.068 780.162 704.556 786.097C699.173 792.032 691.29 795 680.907 795Z" fill="#141414"/>
<path d="M732.641 657.591H753.79V793.065H732.641V657.591Z" fill="#141414"/>
<path d="M807.891 795C797.509 795 789.562 792.032 784.05 786.097C778.538 780.162 775.783 771.776 775.783 760.938V689.718C775.783 678.88 778.538 670.493 784.05 664.558C789.562 658.623 797.509 655.656 807.891 655.656C818.274 655.656 826.221 658.623 831.733 664.558C837.244 670.493 840 678.88 840 689.718V760.938C840 771.776 837.244 780.162 831.733 786.097C826.221 792.032 818.274 795 807.891 795ZM807.891 775.647C815.197 775.647 818.851 771.195 818.851 762.293V688.363C818.851 679.46 815.197 675.009 807.891 675.009C800.585 675.009 796.932 679.46 796.932 688.363V762.293C796.932 771.195 800.585 775.647 807.891 775.647Z" fill="#141414"/>
<path d="M537.633 285.044C623.987 283.064 700.604 348.181 712.678 432.47C720.39 486.295 707.767 529.774 674.043 572.049C670.239 562.919 663.317 550.158 658.689 540.935C649.361 522.243 639.937 503.599 630.414 485.001C626.86 493.566 620.072 506.152 615.814 515.31C596.585 481.869 580.028 445.413 561.353 411.516C554.503 399.08 546.528 384.109 540.946 371.166L540.148 371.28C537.142 373.987 525.901 397.025 523.195 402.254L484.261 476.842C478.216 488.473 470.088 505.936 463.278 516.528C459.573 506.857 453.183 494.695 448.497 485.16C435.033 513.244 418.953 543.646 404.875 571.643C379.061 541.429 365.664 505.793 363.73 466.266C361.5 420.279 377.971 375.33 409.445 341.51C443.755 304.36 487.569 287.048 537.633 285.044Z" fill="#141414"/>
<path d="M422.888 286.595C351.323 336.149 309.835 430.27 325.914 514.639C317.147 506.624 307.494 499.295 298.879 491.153C279.114 472.47 257.723 453.513 240 432.956C249.313 421.678 267.813 404.021 278.448 393.711C307.001 366.031 339.173 338.937 372.272 316.757C384.854 308.327 409.482 294.055 422.888 286.595Z" fill="#141414"/>
<path d="M657.112 286.595C728.677 336.149 770.165 430.27 754.086 514.639C762.853 506.624 772.506 499.295 781.121 491.153C800.886 472.47 822.277 453.513 840 432.956C830.687 421.678 812.187 404.021 801.552 393.711C772.999 366.031 740.827 338.937 707.728 316.757C695.146 308.327 670.518 294.055 657.112 286.595Z" fill="#141414"/>
</svg>
